<?xml version="1.0" ?><svg viewBox="0 0 24 24" xmlns="http://www.w3.org/2000/svg"><defs><style>.cls-1{fill:#ffce69;}.cls-2{fill:#f19b5f;}.cls-3{fill:#6c2e7c;}</style></defs><g id="Icons"><path class="cls-1" d="M12.992,20.912l3.5,1.838A2.131,2.131,0,0,0,19.58,20.5l-.667-3.893a2.129,2.129,0,0,1,.613-1.887l2.828-2.757a2.131,2.131,0,0,0-1.181-3.635l-3.909-.568a2.133,2.133,0,0,1-1.6-1.166L13.911,3.056a2.131,2.131,0,0,0-3.822,0L8.341,6.6a2.133,2.133,0,0,1-1.6,1.166l-3.909.568a2.131,2.131,0,0,0-1.181,3.635l2.828,2.757a2.129,2.129,0,0,1,.613,1.887L4.42,20.5A2.131,2.131,0,0,0,7.512,22.75l3.5-1.838A2.135,2.135,0,0,1,12.992,20.912Z"/><path class="cls-2" d="M16.49,22.75l-3.5-1.84a2.162,2.162,0,0,0-1.98,0l-3.5,1.84A2.132,2.132,0,0,1,4.42,20.5l.55-3.18a2.114,2.114,0,0,0,2.54.43l3.5-1.84a2.162,2.162,0,0,1,1.98,0l3.5,1.84a2.114,2.114,0,0,0,2.54-.43l.55,3.18A2.132,2.132,0,0,1,16.49,22.75Z"/></g><g data-name="Layer 4" id="Layer_4"><path class="cls-3" d="M23.053,12.683a3.132,3.132,0,0,0-1.737-5.341l-3.909-.568a1.13,1.13,0,0,1-.851-.619L14.808,2.614a3.131,3.131,0,0,0-5.616,0L7.444,6.155a1.13,1.13,0,0,1-.851.619l-3.909.568A3.132,3.132,0,0,0,.947,12.684L3.776,15.44a1.131,1.131,0,0,1,.326,1l-.667,3.892a3.131,3.131,0,0,0,4.542,3.3l3.5-1.838a1.125,1.125,0,0,1,1.052,0h0l3.5,1.838a3.11,3.11,0,0,0,3.3-.239,3.109,3.109,0,0,0,1.245-3.063L19.9,16.441a1.13,1.13,0,0,1,.326-1Zm-4.226,1.325a3.131,3.131,0,0,0-.9,2.772l.667,3.892a1.131,1.131,0,0,1-1.642,1.193l-3.5-1.838a3.134,3.134,0,0,0-2.914,0l-3.5,1.838a1.131,1.131,0,0,1-1.642-1.193l.667-3.891a3.132,3.132,0,0,0-.9-2.773L2.344,11.251a1.132,1.132,0,0,1,.627-1.93L6.88,8.753A3.128,3.128,0,0,0,9.237,7.04L10.985,3.5a1.165,1.165,0,0,1,2.03,0L14.763,7.04A3.128,3.128,0,0,0,17.12,8.753l3.909.568a1.132,1.132,0,0,1,.627,1.93Z"/></g></svg>